<svg width="20" height="20" viewBox="0 0 20 20" fill="none" xmlns="http://www.w3.org/2000/svg">
<path d="M18.4219 0.144368H15.8822C15.0985 0.144368 14.4632 0.766947 14.4632 1.53498V4.02396C14.4632 4.792 15.0985 5.41462 15.8822 5.41462H18.4219C19.2056 5.41462 19.841 4.792 19.841 4.02396V1.53498C19.841 0.766947 19.2056 0.144368 18.4219 0.144368Z" fill="#FBFBFB"/>
<path d="M4.26332 14.5401H1.52817C0.684181 14.5401 0 15.1627 0 15.9308V18.4197C0 19.1878 0.684181 19.8104 1.52817 19.8104H4.26332C5.1073 19.8104 5.79149 19.1878 5.79149 18.4197V15.9308C5.79149 15.1627 5.1073 14.5401 4.26332 14.5401Z" fill="#FBFBFB"/>
<path d="M3.95877 7.282H1.419C0.635326 7.282 0 7.90457 0 8.67261V11.1616C0 11.9296 0.63547 12.5522 1.41914 12.5522H3.95877C4.74248 12.5522 5.37781 11.9296 5.37781 11.1616V8.67261C5.37781 7.90457 4.74248 7.282 3.95877 7.282Z" fill="#FBFBFB"/>
<path d="M11.2537 14.5009H8.71393C7.93026 14.5009 7.29493 15.1235 7.29493 15.8916L7.29479 18.3805C7.29479 19.1486 7.93041 19.7712 8.71408 19.7712H11.2537C12.0374 19.7712 12.6727 19.1486 12.6727 18.3805V15.8916C12.6727 15.1235 12.0374 14.5009 11.2537 14.5009Z" fill="#FBFBFB"/>
<path d="M3.95877 0.000212027H1.419C0.635326 0.000212027 0 0.62279 0 1.39083V3.87981C0 4.64784 0.63547 5.27046 1.41914 5.27046H3.95877C4.74248 5.27046 5.37781 4.64784 5.37781 3.87981V1.39083C5.37781 0.62279 4.74248 0.000212027 3.95877 0.000212027Z" fill="#FBFBFB"/>
<path d="M11.4501 7.35525H8.91028C8.12661 7.35525 7.49129 7.97783 7.49129 8.74587V11.2348C7.49129 12.0029 8.12676 12.6255 8.91043 12.6255H11.4501C12.2338 12.6255 12.8691 12.0029 12.8691 11.2348V8.74587C12.8691 7.97783 12.2338 7.35525 11.4501 7.35525Z" fill="#FBFBFB"/>
<path d="M18.581 14.5009H16.0412C15.2576 14.5009 14.6222 15.1235 14.6222 15.8916V18.3805C14.6222 19.1486 15.2577 19.7712 16.0414 19.7712H18.581C19.3647 19.7712 20.0001 19.1486 20.0001 18.3805V15.8916C20.0001 15.1235 19.3647 14.5009 18.581 14.5009Z" fill="#FBFBFB"/>
<path d="M11.1427 0.0872693H8.60288C7.81921 0.0872693 7.18388 0.709848 7.18388 1.47789V3.96686C7.18388 4.7349 7.81935 5.35752 8.60302 5.35752H11.1427C11.9264 5.35752 12.5617 4.73444 12.5617 3.9664V1.47789C12.5617 0.709848 11.9264 0.0872693 11.1427 0.0872693Z" fill="#FBFBFB"/>
<path d="M18.3976 7.4999H15.8578C15.0741 7.4999 14.4388 8.12248 14.4388 8.89052V11.3795C14.4388 12.1475 15.0743 12.7702 15.8579 12.7702H18.3976C19.1813 12.7702 19.8166 12.1475 19.8166 11.3795V8.89052C19.8166 8.12248 19.1813 7.4999 18.3976 7.4999Z" fill="#FBFBFB"/>
</svg>
